<svg width="12" height="16" viewBox="0 0 12 16" fill="none" xmlns="http://www.w3.org/2000/svg">
<path d="M9.48 15.5H2.52C1.76188 15.4724 1.05568 15.1078 0.59426 14.5056C0.132844 13.9035 -0.0355751 13.1267 0.135 12.3875L0.315 11.5325C0.522027 10.3751 1.51697 9.52453 2.6925 9.50001H9.3075C10.483 9.52453 11.478 10.3751 11.685 11.5325L11.865 12.3875C12.0356 13.1267 11.8672 13.9035 11.4057 14.5056C10.9443 15.1078 10.2381 15.4724 9.48 15.5Z" fill="white"/>
<path d="M6.375 8.00001H5.625C3.96815 8.00001 2.625 6.65687 2.625 5.00001V3.02001C2.623 2.35105 2.88786 1.70892 3.36088 1.23589C3.83391 0.762868 4.47604 0.498011 5.145 0.500011H6.855C7.52396 0.498011 8.16609 0.762868 8.63912 1.23589C9.11214 1.70892 9.377 2.35105 9.375 3.02001V5.00001C9.375 5.79566 9.05893 6.55872 8.49632 7.12133C7.93371 7.68394 7.17065 8.00001 6.375 8.00001Z" fill="white"/>
</svg>
