<svg width="21" height="17" viewBox="0 0 21 17" fill="none" xmlns="http://www.w3.org/2000/svg">
<path fill-rule="evenodd" clip-rule="evenodd" d="M12.9559 13.2949C13.3093 12.4221 14.1548 11.8494 15.0964 11.845V11.8032C15.7137 11.8004 16.3067 12.0437 16.7443 12.4792C17.1818 12.9148 17.4277 13.5067 17.4277 14.1241C17.4447 15.0655 16.8912 15.9238 16.0267 16.2968C15.1622 16.6699 14.158 16.4837 13.4848 15.8255C12.8115 15.1673 12.6026 14.1676 12.9559 13.2949ZM15.8491 14.1659C15.8491 13.7502 15.5121 13.4132 15.0964 13.4132C14.683 13.4188 14.3493 13.7525 14.3436 14.1659C14.3436 14.5816 14.6806 14.9186 15.0964 14.9186C15.5121 14.9186 15.8491 14.5816 15.8491 14.1659Z" fill="white"/>
<path fill-rule="evenodd" clip-rule="evenodd" d="M2.09091 14.1241C2.09091 12.8423 3.13002 11.8032 4.41182 11.8032C5.02821 11.8004 5.62017 12.044 6.05603 12.4799C6.4919 12.9157 6.73552 13.5077 6.73273 14.1241C6.73273 15.4059 5.69362 16.445 4.41182 16.445C3.13002 16.445 2.09091 15.4059 2.09091 14.1241ZM5.11034 13.8883C4.99672 13.6019 4.71997 13.4136 4.41182 13.4132V13.3713C3.9961 13.3713 3.65909 13.7083 3.65909 14.1241C3.64197 14.4317 3.81412 14.7188 4.0936 14.8486C4.37309 14.9784 4.70346 14.9247 4.9275 14.7131C5.15153 14.5015 5.22397 14.1748 5.11034 13.8883Z" fill="white"/>
<path fill-rule="evenodd" clip-rule="evenodd" d="M20.2923 5.19591L19.1945 4.09818C18.8171 3.71803 18.3082 3.49724 17.7727 3.48136H12.7755V2.09091C12.7755 0.936132 11.8393 0 10.6845 0H2.09091C0.936132 0 0 0.936132 0 2.09091V4.31773H8.36364C8.57714 4.31494 8.78301 4.39708 8.93594 4.54609C9.08887 4.6951 9.17634 4.89877 9.17909 5.11227C9.17362 5.32302 9.08461 5.52296 8.93167 5.66806C8.77872 5.81316 8.57438 5.89153 8.36364 5.88591H0V14.3959H1.31727C1.31183 14.3193 1.31183 14.2425 1.31727 14.1659C1.13623 12.9525 1.67927 11.745 2.70717 11.0753C3.73506 10.4055 5.05906 10.3966 6.09588 11.0524C7.1327 11.7082 7.69196 12.9084 7.52727 14.1241C7.53272 14.2007 7.53272 14.2775 7.52727 14.3541H12.0123C12.0068 14.2775 12.0068 14.2007 12.0123 14.1241C12.0123 13.0036 12.6101 11.9682 13.5805 11.4079C14.5508 10.8477 15.7464 10.8477 16.7168 11.4079C17.6872 11.9682 18.285 13.0036 18.285 14.1241C18.2904 14.2007 18.2904 14.2775 18.285 14.3541H18.8182C19.973 14.3541 20.9091 13.418 20.9091 12.2632V6.67C20.9068 6.11635 20.6849 5.58623 20.2923 5.19591ZM8.36364 9.02227H3.13636C2.70737 9.02231 2.35799 8.67759 2.35227 8.24864C2.35224 7.81387 2.70164 7.45981 3.13636 7.45409H8.36364C8.79836 7.45981 9.14777 7.81387 9.14773 8.24864C9.14201 8.67759 8.79263 9.02231 8.36364 9.02227ZM14.0405 7.85136H19.2677C19.7008 7.85136 20.0518 7.50031 20.0518 7.06727C20.0518 6.63423 19.7008 6.28318 19.2677 6.28318H14.0405C13.6074 6.28318 13.2564 6.63423 13.2564 7.06727C13.2564 7.50031 13.6074 7.85136 14.0405 7.85136Z" fill="white"/>
</svg>
